<?xml version="1.0" encoding="UTF-8" standalone="no"?><svg xmlns="http://www.w3.org/2000/svg" xmlns:xlink="http://www.w3.org/1999/xlink" clip-rule="evenodd" stroke-miterlimit="10" viewBox="0 0 720 540"><desc>SVG generated by Keynote</desc><defs></defs><g transform="matrix(1.00, 0.00, -0.00, -1.00, 0.0, 540.0)"><path d="M 0.0 540.0 L 720.0 540.0 L 720.0 0.0 L 0.0 0.0 Z M 0.0 540.0 " fill="#FFFFFF"></path><path d="M 0.0 540.0 L 720.0 540.0 L 720.0 0.0 L 0.0 0.0 Z M 0.0 540.0 " fill="#EEEEEE"></path><path d="M 475.0 374.0 L 518.0 374.0 L 518.0 331.0 L 475.0 331.0 Z M 474.9 374.5 " fill="#163D21"></path><path d="M 518.0 457.0 L 601.0 457.0 L 601.0 374.0 L 518.0 374.0 Z M 518.0 457.2 " fill="#00B624"></path><path d="M 0.0 -0.5 L 540.0 -0.5 " fill="none" stroke="#FFFFFF" stroke-width="2.00" stroke-linejoin="round" transform="matrix(0.00, -1.00, -1.00, 0.00, 40.5, 540.0)"></path><path d="M 0.0 0.2 L 720.0 0.2 " fill="none" stroke="#FFFFFF" stroke-width="2.00" stroke-linejoin="round" transform="matrix(1.00, 0.00, 0.00, -1.00, 0.0, 83.2)"></path><path d="M 0.0 0.5 L 720.0 0.5 " fill="none" stroke="#FFFFFF" stroke-width="2.00" stroke-linejoin="round" transform="matrix(1.00, 0.00, 0.00, -1.00, 0.0, 374.5)"></path><path d="M 0.0 0.0 L 540.0 0.0 " fill="none" stroke="#FFFFFF" stroke-width="2.00" stroke-linejoin="round" transform="matrix(0.00, -1.00, -1.00, 0.00, 518.0, 540.0)"></path><image xlink:href="54FD913984C42B2F0FBCB0B252A500F4.png" width="447.00" height="119.00" transform="matrix(0.33, 0.00, -0.00, -0.33, 52.9, 64.5)"></image></g></svg>